#!OML:ASF E:\Steps\Project 1\Capture day 1\Session 2\Subject.ASF
:FULLY-SPECIFIED
:DEGREES
471
root 9.8153 16.1403 11.94 -139.126 0.488265 164.303
lowerback -6.00928 -3.98502 -3.38793
upperback 3.05631 -5.08834 -1.53358
thorax 6.71792 -2.66992 -0.321883
lowerneck -1.40863 2.30424 -1.11351
upperneck -7.05085 3.08808 -5.35893
head -1.89712 1.81842 -1.5419
rclavicle -4.33351e-014 3.18055e-015
rhumerus -19.3469 14.3146 -63.281
rradius 47.859
rwrist -9.34446
rhand -14.0611 -44.9366
rfingers 7.12502
rthumb 12.0702 -434.568
lclavicle -4.33351e-014 3.18055e-015
lhumerus -10.2636 -32.1988 60.335
lradius 57.4334
lwrist 7.89917
lhand -23.9241 -15.8586
lfingers 7.12502
lthumb 2.55065 14.1059
rfemur -82.2346 -17.3976 0.935387
rtibia 60.6214
rfoot -26.2147 -13.3337
rtoes -28.4164
lfemur -24.923 -8.8895 -1.265
ltibia 30.9506
lfoot 9.33716 28.1335
ltoes 7.38627
472
root 9.89384 16.1914 11.8777 -139.132 0.633143 164.495
lowerback -6.05697 -3.88882 -3.50648
upperback 3.02522 -4.94529 -1.50836
thorax 6.72138 -2.6037 -0.214656
lowerneck -1.54743 2.29469 -1.11625
upperneck -6.90431 3.0839 -5.33274
head -1.82566 1.80922 -1.52706
rclavicle -1.47101e-014 3.18055e-015
rhumerus -19.2289 14.6868 -63.4072
rradius 48.1296
rwrist -9.19553
rhand -13.9689 -44.9005
rfingers 7.12502
rthumb 12.1591 -434.527
lclavicle -1.47101e-014 3.18055e-015
lhumerus -10.654 -32.5787 60.6531
lradius 57.5024
lwrist 7.94192
lhand -23.4711 -16.1795
lfingers 7.12502
lthumb 2.98812 13.7793
rfemur -81.8017 -16.8988 1.43764
rtibia 60.0972
rfoot -26.257 -13.1145
rtoes -28.0214
lfemur -25.8897 -8.24064 -1.61276
ltibia 33.1877
lfoot 6.74331 28.413
ltoes 10.4284
473
root 9.97351 16.2426 11.8144 -139.206 0.720789 164.747
lowerback -5.99783 -3.71296 -3.57973
upperback 3.12587 -4.70503 -1.55105
thorax 6.78974 -2.49094 -0.189732
lowerneck -2.07224 2.23889 -0.873634
upperneck -6.80077 3.04041 -5.26731
head -1.69913 1.77536 -1.53477
rclavicle -9.54166e-015 -5.1684e-015
rhumerus -19.0689 14.5449 -63.6395
rradius 48.3866
rwrist -8.70403
rhand -13.9127 -45.0645
rfingers 7.12502
rthumb 12.2133 -434.688
lclavicle -9.54166e-015 -5.1684e-015
lhumerus -10.4914 -33.1456 60.6225
lradius 57.435
lwrist 7.88801
lhand -23.162 -16.083
lfingers 7.12502
lthumb 3.28662 13.8714
rfemur -81.2764 -16.3345 2.00332
rtibia 59.6119
rfoot -26.3777 -12.9519
rtoes -28.2117
lfemur -26.7562 -7.6575 -1.87121
ltibia 35.3273
lfoot 5.24275 28.3863
ltoes 7.47347
474
root 10.0513 16.2888 11.7514 -139.239 0.888478 165.055
lowerback -6.15357 -3.87802 -3.75705
upperback 2.89922 -4.9044 -1.32863
thorax 6.68062 -2.59187 0.114611
lowerneck -1.46395 2.53614 -1.2711
upperneck -6.52237 3.39639 -5.25518
head -1.71309 1.94677 -1.472
rclavicle 3.02153e-014 -2.0276e-014
rhumerus -19.0219 15.6935 -63.8249
rradius 48.6757
rwrist -8.27519
rhand -13.26 -45.4369
rfingers 7.12502
rthumb 12.8426 -435.022
lclavicle 3.02153e-014 -2.0276e-014
lhumerus -11.9835 -32.8034 61.5363
lradius 57.5611
lwrist 8.1658
lhand -22.5942 -16.0559
lfingers 7.12502
lthumb 3.83497 13.8894
rfemur -80.826 -15.6642 2.53785
rtibia 59.1838
rfoot -26.5625 -12.6353
rtoes -27.8634
lfemur -27.6357 -7.04819 -2.15829
ltibia 37.3911
lfoot 5.00649 28.2473
ltoes -0.740454
475
root 10.1268 16.3348 11.6909 -139.277 0.947295 165.331
lowerback -6.29349 -3.72997 -3.67844
upperback 2.91125 -4.70108 -1.46172
thorax 6.74781 -2.48705 -0.0522311
lowerneck -1.61897 2.51635 -0.912905
upperneck -6.36191 3.37641 -5.09359
head -1.63171 1.91445 -1.47465
rclavicle 3.97569e-016 2.18663e-014
rhumerus -19.1603 15.4812 -64.3973
rradius 48.7967
rwrist -7.80646
rhand -12.5362 -45.7551
rfingers 7.12502
rthumb 13.5402 -435.295
lclavicle 3.97569e-016 2.18663e-014
lhumerus -12.2245 -33.6139 61.5531
lradius 57.4984
lwrist 8.18832
lhand -23.0913 -15.8744
lfingers 7.12502
lthumb 3.35489 14.079
rfemur -80.3031 -15.1051 3.02534
rtibia 58.6732
rfoot -26.6651 -12.2027
rtoes -26.5968
lfemur -28.6534 -6.57343 -2.41894
ltibia 39.5332
lfoot 4.75011 28.2154
ltoes -8.45997
